<svg width="64" height="64" viewBox="0 0 64 64" fill="none" xmlns="http://www.w3.org/2000/svg">
<style>
    path {
        fill: #345;
    }
    @media (prefers-color-scheme: dark) {
        path {
            fill: #fff;
        }
    }
</style>
<path d="M32 64C49.6731 64 64 49.6731 64 32C64 14.3269 49.6731 0 32 0C14.3269 0 0 14.3269 0 32C0 49.6731 14.3269 64 32 64ZM44.4192 23.7096C44.4192 28.5226 41.5154 32.6574 37.3642 34.4576L41 52H32.7096H24.4192L28.055 34.4576C23.9038 32.6574 21 28.5226 21 23.7096C21 17.2426 26.2426 12 32.7096 12C39.1766 12 44.4192 17.2426 44.4192 23.7096Z"/>
</svg>
